# xmcd
# 
# Track frame offsets:
#     150
#     14203
#     37491
#     54619
#     71107
#     90501
#     107471
#     121111
#     135776
#     187483
#     201918
# 
# Disc length: 3045
# 
# Revision: 0
# Processed by: cddbd v1.5.2PL0 Copyright (c) Steve Scherf et al.
# Submitted via: fre:ac v1.0.17
# 
DISCID=a40be30b
DTITLE=Mike Henderson - Troube Ain't No Stranger
DYEAR=0
DGENRE=Blues
TTITLE0=Everybody Needs A Little Love
TTITLE1=Love And Heartbreak
TTITLE2=If Wishes Were Horses
TTITLE3=Thank You Love
TTITLE4=Nohin' But The Blues
TTITLE5=The Naked Truth
TTITLE6=Deeper And Deeper
TTITLE7=Working For The Man
TTITLE8=Big Boat
TTITLE9=Ain't It Nice
TTITLE10=Troube Ain't No Stranger
EXTD=
EXTT0=
EXTT1=
EXTT2=
EXTT3=
EXTT4=
EXTT5=
EXTT6=
EXTT7=
EXTT8=
EXTT9=
EXTT10=
PLAYORDER=
